<svg xmlns="http://www.w3.org/2000/svg" width="1200" height="291" role="img" aria-label="Coding consistency last 90 days">
<text x="0" y="46" fill="#C9D1D9" font-family="Segoe UI, Helvetica, Arial, sans-serif" font-size="30" font-weight="700">Coding Consistency (Last 180 Days)</text>
<text x="0" y="76" fill="#8B949E" font-family="Segoe UI, Helvetica, Arial, sans-serif" font-size="16">Zerius7733 coded on 47/180 days (26.1%)</text>
<text x="0" y="102" fill="#8B949E" font-family="Segoe UI, Helvetica, Arial, sans-serif" font-size="14">Total commits in window: 233</text>
<rect x="0" y="128" width="1080" height="20" rx="10" fill="#30363D" />
<rect x="0" y="128" width="281" height="20" rx="10" fill="#2EA043" />
<text x="1092" y="143" fill="#C9D1D9" font-family="Segoe UI, Helvetica, Arial, sans-serif" font-size="14">26.1%</text>
<rect x="0" y="176" width="10" height="10" rx="2" fill="#30363D" />
<rect x="13" y="176" width="10" height="10" rx="2" fill="#2EA043" />
<rect x="26" y="176" width="10" height="10" rx="2" fill="#2EA043" />
<rect x="39" y="176" width="10" height="10" rx="2" fill="#2EA043" />
<rect x="52" y="176" width="10" height="10" rx="2" fill="#2EA043" />
<rect x="65" y="176" width="10" height="10" rx="2" fill="#30363D" />
<rect x="78" y="176" width="10" height="10" rx="2" fill="#30363D" />
<rect x="91" y="176" width="10" height="10" rx="2" fill="#30363D" />
<rect x="104" y="176" width="10" height="10" rx="2" fill="#30363D" />
<rect x="117" y="176" width="10" height="10" rx="2" fill="#30363D" />
<rect x="130" y="176" width="10" height="10" rx="2" fill="#30363D" />
<rect x="143" y="176" width="10" height="10" rx="2" fill="#30363D" />
<rect x="156" y="176" width="10" height="10" rx="2" fill="#30363D" />
<rect x="169" y="176" width="10" height="10" rx="2" fill="#30363D" />
<rect x="182" y="176" width="10" height="10" rx="2" fill="#30363D" />
<rect x="195" y="176" width="10" height="10" rx="2" fill="#30363D" />
<rect x="208" y="176" width="10" height="10" rx="2" fill="#2EA043" />
<rect x="221" y="176" width="10" height="10" rx="2" fill="#30363D" />
<rect x="234" y="176" width="10" height="10" rx="2" fill="#30363D" />
<rect x="247" y="176" width="10" height="10" rx="2" fill="#30363D" />
<rect x="260" y="176" width="10" height="10" rx="2" fill="#30363D" />
<rect x="273" y="176" width="10" height="10" rx="2" fill="#30363D" />
<rect x="286" y="176" width="10" height="10" rx="2" fill="#30363D" />
<rect x="299" y="176" width="10" height="10" rx="2" fill="#2EA043" />
<rect x="312" y="176" width="10" height="10" rx="2" fill="#2EA043" />
<rect x="325" y="176" width="10" height="10" rx="2" fill="#2EA043" />
<rect x="338" y="176" width="10" height="10" rx="2" fill="#2EA043" />
<rect x="351" y="176" width="10" height="10" rx="2" fill="#2EA043" />
<rect x="364" y="176" width="10" height="10" rx="2" fill="#30363D" />
<rect x="377" y="176" width="10" height="10" rx="2" fill="#30363D" />
<rect x="0" y="189" width="10" height="10" rx="2" fill="#30363D" />
<rect x="13" y="189" width="10" height="10" rx="2" fill="#30363D" />
<rect x="26" y="189" width="10" height="10" rx="2" fill="#30363D" />
<rect x="39" y="189" width="10" height="10" rx="2" fill="#30363D" />
<rect x="52" y="189" width="10" height="10" rx="2" fill="#2EA043" />
<rect x="65" y="189" width="10" height="10" rx="2" fill="#30363D" />
<rect x="78" y="189" width="10" height="10" rx="2" fill="#30363D" />
<rect x="91" y="189" width="10" height="10" rx="2" fill="#2EA043" />
<rect x="104" y="189" width="10" height="10" rx="2" fill="#2EA043" />
<rect x="117" y="189" width="10" height="10" rx="2" fill="#30363D" />
<rect x="130" y="189" width="10" height="10" rx="2" fill="#30363D" />
<rect x="143" y="189" width="10" height="10" rx="2" fill="#30363D" />
<rect x="156" y="189" width="10" height="10" rx="2" fill="#30363D" />
<rect x="169" y="189" width="10" height="10" rx="2" fill="#30363D" />
<rect x="182" y="189" width="10" height="10" rx="2" fill="#2EA043" />
<rect x="195" y="189" width="10" height="10" rx="2" fill="#2EA043" />
<rect x="208" y="189" width="10" height="10" rx="2" fill="#2EA043" />
<rect x="221" y="189" width="10" height="10" rx="2" fill="#30363D" />
<rect x="234" y="189" width="10" height="10" rx="2" fill="#2EA043" />
<rect x="247" y="189" width="10" height="10" rx="2" fill="#30363D" />
<rect x="260" y="189" width="10" height="10" rx="2" fill="#30363D" />
<rect x="273" y="189" width="10" height="10" rx="2" fill="#30363D" />
<rect x="286" y="189" width="10" height="10" rx="2" fill="#30363D" />
<rect x="299" y="189" width="10" height="10" rx="2" fill="#30363D" />
<rect x="312" y="189" width="10" height="10" rx="2" fill="#30363D" />
<rect x="325" y="189" width="10" height="10" rx="2" fill="#30363D" />
<rect x="338" y="189" width="10" height="10" rx="2" fill="#30363D" />
<rect x="351" y="189" width="10" height="10" rx="2" fill="#30363D" />
<rect x="364" y="189" width="10" height="10" rx="2" fill="#30363D" />
<rect x="377" y="189" width="10" height="10" rx="2" fill="#2EA043" />
<rect x="0" y="202" width="10" height="10" rx="2" fill="#2EA043" />
<rect x="13" y="202" width="10" height="10" rx="2" fill="#2EA043" />
<rect x="26" y="202" width="10" height="10" rx="2" fill="#2EA043" />
<rect x="39" y="202" width="10" height="10" rx="2" fill="#2EA043" />
<rect x="52" y="202" width="10" height="10" rx="2" fill="#2EA043" />
<rect x="65" y="202" width="10" height="10" rx="2" fill="#2EA043" />
<rect x="78" y="202" width="10" height="10" rx="2" fill="#2EA043" />
<rect x="91" y="202" width="10" height="10" rx="2" fill="#2EA043" />
<rect x="104" y="202" width="10" height="10" rx="2" fill="#2EA043" />
<rect x="117" y="202" width="10" height="10" rx="2" fill="#30363D" />
<rect x="130" y="202" width="10" height="10" rx="2" fill="#30363D" />
<rect x="143" y="202" width="10" height="10" rx="2" fill="#2EA043" />
<rect x="156" y="202" width="10" height="10" rx="2" fill="#30363D" />
<rect x="169" y="202" width="10" height="10" rx="2" fill="#30363D" />
<rect x="182" y="202" width="10" height="10" rx="2" fill="#2EA043" />
<rect x="195" y="202" width="10" height="10" rx="2" fill="#30363D" />
<rect x="208" y="202" width="10" height="10" rx="2" fill="#30363D" />
<rect x="221" y="202" width="10" height="10" rx="2" fill="#2EA043" />
<rect x="234" y="202" width="10" height="10" rx="2" fill="#2EA043" />
<rect x="247" y="202" width="10" height="10" rx="2" fill="#30363D" />
<rect x="260" y="202" width="10" height="10" rx="2" fill="#30363D" />
<rect x="273" y="202" width="10" height="10" rx="2" fill="#30363D" />
<rect x="286" y="202" width="10" height="10" rx="2" fill="#30363D" />
<rect x="299" y="202" width="10" height="10" rx="2" fill="#30363D" />
<rect x="312" y="202" width="10" height="10" rx="2" fill="#30363D" />
<rect x="325" y="202" width="10" height="10" rx="2" fill="#30363D" />
<rect x="338" y="202" width="10" height="10" rx="2" fill="#30363D" />
<rect x="351" y="202" width="10" height="10" rx="2" fill="#2EA043" />
<rect x="364" y="202" width="10" height="10" rx="2" fill="#30363D" />
<rect x="377" y="202" width="10" height="10" rx="2" fill="#30363D" />
<rect x="0" y="215" width="10" height="10" rx="2" fill="#30363D" />
<rect x="13" y="215" width="10" height="10" rx="2" fill="#2EA043" />
<rect x="26" y="215" width="10" height="10" rx="2" fill="#30363D" />
<rect x="39" y="215" width="10" height="10" rx="2" fill="#30363D" />
<rect x="52" y="215" width="10" height="10" rx="2" fill="#2EA043" />
<rect x="65" y="215" width="10" height="10" rx="2" fill="#2EA043" />
<rect x="78" y="215" width="10" height="10" rx="2" fill="#30363D" />
<rect x="91" y="215" width="10" height="10" rx="2" fill="#2EA043" />
<rect x="104" y="215" width="10" height="10" rx="2" fill="#30363D" />
<rect x="117" y="215" width="10" height="10" rx="2" fill="#30363D" />
<rect x="130" y="215" width="10" height="10" rx="2" fill="#30363D" />
<rect x="143" y="215" width="10" height="10" rx="2" fill="#30363D" />
<rect x="156" y="215" width="10" height="10" rx="2" fill="#30363D" />
<rect x="169" y="215" width="10" height="10" rx="2" fill="#30363D" />
<rect x="182" y="215" width="10" height="10" rx="2" fill="#2EA043" />
<rect x="195" y="215" width="10" height="10" rx="2" fill="#30363D" />
<rect x="208" y="215" width="10" height="10" rx="2" fill="#2EA043" />
<rect x="221" y="215" width="10" height="10" rx="2" fill="#30363D" />
<rect x="234" y="215" width="10" height="10" rx="2" fill="#30363D" />
<rect x="247" y="215" width="10" height="10" rx="2" fill="#30363D" />
<rect x="260" y="215" width="10" height="10" rx="2" fill="#30363D" />
<rect x="273" y="215" width="10" height="10" rx="2" fill="#30363D" />
<rect x="286" y="215" width="10" height="10" rx="2" fill="#30363D" />
<rect x="299" y="215" width="10" height="10" rx="2" fill="#30363D" />
<rect x="312" y="215" width="10" height="10" rx="2" fill="#30363D" />
<rect x="325" y="215" width="10" height="10" rx="2" fill="#30363D" />
<rect x="338" y="215" width="10" height="10" rx="2" fill="#30363D" />
<rect x="351" y="215" width="10" height="10" rx="2" fill="#30363D" />
<rect x="364" y="215" width="10" height="10" rx="2" fill="#30363D" />
<rect x="377" y="215" width="10" height="10" rx="2" fill="#30363D" />
<rect x="0" y="228" width="10" height="10" rx="2" fill="#30363D" />
<rect x="13" y="228" width="10" height="10" rx="2" fill="#30363D" />
<rect x="26" y="228" width="10" height="10" rx="2" fill="#2EA043" />
<rect x="39" y="228" width="10" height="10" rx="2" fill="#30363D" />
<rect x="52" y="228" width="10" height="10" rx="2" fill="#30363D" />
<rect x="65" y="228" width="10" height="10" rx="2" fill="#30363D" />
<rect x="78" y="228" width="10" height="10" rx="2" fill="#30363D" />
<rect x="91" y="228" width="10" height="10" rx="2" fill="#30363D" />
<rect x="104" y="228" width="10" height="10" rx="2" fill="#30363D" />
<rect x="117" y="228" width="10" height="10" rx="2" fill="#30363D" />
<rect x="130" y="228" width="10" height="10" rx="2" fill="#2EA043" />
<rect x="143" y="228" width="10" height="10" rx="2" fill="#30363D" />
<rect x="156" y="228" width="10" height="10" rx="2" fill="#30363D" />
<rect x="169" y="228" width="10" height="10" rx="2" fill="#30363D" />
<rect x="182" y="228" width="10" height="10" rx="2" fill="#30363D" />
<rect x="195" y="228" width="10" height="10" rx="2" fill="#30363D" />
<rect x="208" y="228" width="10" height="10" rx="2" fill="#30363D" />
<rect x="221" y="228" width="10" height="10" rx="2" fill="#30363D" />
<rect x="234" y="228" width="10" height="10" rx="2" fill="#30363D" />
<rect x="247" y="228" width="10" height="10" rx="2" fill="#30363D" />
<rect x="260" y="228" width="10" height="10" rx="2" fill="#30363D" />
<rect x="273" y="228" width="10" height="10" rx="2" fill="#30363D" />
<rect x="286" y="228" width="10" height="10" rx="2" fill="#30363D" />
<rect x="299" y="228" width="10" height="10" rx="2" fill="#30363D" />
<rect x="312" y="228" width="10" height="10" rx="2" fill="#30363D" />
<rect x="325" y="228" width="10" height="10" rx="2" fill="#30363D" />
<rect x="338" y="228" width="10" height="10" rx="2" fill="#30363D" />
<rect x="351" y="228" width="10" height="10" rx="2" fill="#30363D" />
<rect x="364" y="228" width="10" height="10" rx="2" fill="#30363D" />
<rect x="377" y="228" width="10" height="10" rx="2" fill="#30363D" />
<rect x="0" y="241" width="10" height="10" rx="2" fill="#30363D" />
<rect x="13" y="241" width="10" height="10" rx="2" fill="#30363D" />
<rect x="26" y="241" width="10" height="10" rx="2" fill="#30363D" />
<rect x="39" y="241" width="10" height="10" rx="2" fill="#30363D" />
<rect x="52" y="241" width="10" height="10" rx="2" fill="#30363D" />
<rect x="65" y="241" width="10" height="10" rx="2" fill="#30363D" />
<rect x="78" y="241" width="10" height="10" rx="2" fill="#30363D" />
<rect x="91" y="241" width="10" height="10" rx="2" fill="#30363D" />
<rect x="104" y="241" width="10" height="10" rx="2" fill="#30363D" />
<rect x="117" y="241" width="10" height="10" rx="2" fill="#2EA043" />
<rect x="130" y="241" width="10" height="10" rx="2" fill="#2EA043" />
<rect x="143" y="241" width="10" height="10" rx="2" fill="#2EA043" />
<rect x="156" y="241" width="10" height="10" rx="2" fill="#30363D" />
<rect x="169" y="241" width="10" height="10" rx="2" fill="#30363D" />
<rect x="182" y="241" width="10" height="10" rx="2" fill="#30363D" />
<rect x="195" y="241" width="10" height="10" rx="2" fill="#30363D" />
<rect x="208" y="241" width="10" height="10" rx="2" fill="#2EA043" />
<rect x="221" y="241" width="10" height="10" rx="2" fill="#30363D" />
<rect x="234" y="241" width="10" height="10" rx="2" fill="#30363D" />
<rect x="247" y="241" width="10" height="10" rx="2" fill="#30363D" />
<rect x="260" y="241" width="10" height="10" rx="2" fill="#30363D" />
<rect x="273" y="241" width="10" height="10" rx="2" fill="#2EA043" />
<rect x="286" y="241" width="10" height="10" rx="2" fill="#30363D" />
<rect x="299" y="241" width="10" height="10" rx="2" fill="#30363D" />
<rect x="312" y="241" width="10" height="10" rx="2" fill="#30363D" />
<rect x="325" y="241" width="10" height="10" rx="2" fill="#2EA043" />
<rect x="338" y="241" width="10" height="10" rx="2" fill="#30363D" />
<rect x="351" y="241" width="10" height="10" rx="2" fill="#30363D" />
<rect x="364" y="241" width="10" height="10" rx="2" fill="#30363D" />
<rect x="377" y="241" width="10" height="10" rx="2" fill="#2EA043" />
<text x="0" y="275" fill="#8B949E" font-family="Segoe UI, Helvetica, Arial, sans-serif" font-size="12">Updated: 2026-02-13 21:15 SGT</text>
</svg>