<svg xmlns="http://www.w3.org/2000/svg" width="1200" height="648" role="img" aria-label="Projects by detected languages chart">
<text x="0" y="54" fill="#C9D1D9" font-family="Segoe UI, Helvetica, Arial, sans-serif" font-size="28" font-weight="700">Projects by Detected Languages</text>
<text x="0" y="79" fill="#8B949E" font-family="Segoe UI, Helvetica, Arial, sans-serif" font-size="14">Each detected repo language counts once - Zerius7733</text>
<text x="0" y="98" fill="#8B949E" font-family="Segoe UI, Helvetica, Arial, sans-serif" font-size="14">Contributing repositories for both public and private included</text>
<text x="0" y="134" fill="#C9D1D9" font-family="Segoe UI, Helvetica, Arial, sans-serif" font-size="16">Python</text>
<rect x="150" y="118" width="1000" height="18" rx="9" fill="#30363D" />
<rect x="150" y="118" width="1000" height="18" rx="9" fill="#58A6FF" />
<text x="1162" y="133" fill="#C9D1D9" font-family="Segoe UI, Helvetica, Arial, sans-serif" font-size="14">7</text>
<text x="0" y="178" fill="#C9D1D9" font-family="Segoe UI, Helvetica, Arial, sans-serif" font-size="16">HTML</text>
<rect x="150" y="162" width="1000" height="18" rx="9" fill="#30363D" />
<rect x="150" y="162" width="571" height="18" rx="9" fill="#58A6FF" />
<text x="1162" y="177" fill="#C9D1D9" font-family="Segoe UI, Helvetica, Arial, sans-serif" font-size="14">4</text>
<text x="0" y="222" fill="#C9D1D9" font-family="Segoe UI, Helvetica, Arial, sans-serif" font-size="16">Jupyter Notebook</text>
<rect x="150" y="206" width="1000" height="18" rx="9" fill="#30363D" />
<rect x="150" y="206" width="428" height="18" rx="9" fill="#58A6FF" />
<text x="1162" y="221" fill="#C9D1D9" font-family="Segoe UI, Helvetica, Arial, sans-serif" font-size="14">3</text>
<text x="0" y="266" fill="#C9D1D9" font-family="Segoe UI, Helvetica, Arial, sans-serif" font-size="16">JavaScript</text>
<rect x="150" y="250" width="1000" height="18" rx="9" fill="#30363D" />
<rect x="150" y="250" width="285" height="18" rx="9" fill="#58A6FF" />
<text x="1162" y="265" fill="#C9D1D9" font-family="Segoe UI, Helvetica, Arial, sans-serif" font-size="14">2</text>
<text x="0" y="310" fill="#C9D1D9" font-family="Segoe UI, Helvetica, Arial, sans-serif" font-size="16">C</text>
<rect x="150" y="294" width="1000" height="18" rx="9" fill="#30363D" />
<rect x="150" y="294" width="142" height="18" rx="9" fill="#58A6FF" />
<text x="1162" y="309" fill="#C9D1D9" font-family="Segoe UI, Helvetica, Arial, sans-serif" font-size="14">1</text>
<text x="0" y="354" fill="#C9D1D9" font-family="Segoe UI, Helvetica, Arial, sans-serif" font-size="16">CSS</text>
<rect x="150" y="338" width="1000" height="18" rx="9" fill="#30363D" />
<rect x="150" y="338" width="142" height="18" rx="9" fill="#58A6FF" />
<text x="1162" y="353" fill="#C9D1D9" font-family="Segoe UI, Helvetica, Arial, sans-serif" font-size="14">1</text>
<text x="0" y="398" fill="#C9D1D9" font-family="Segoe UI, Helvetica, Arial, sans-serif" font-size="16">Dockerfile</text>
<rect x="150" y="382" width="1000" height="18" rx="9" fill="#30363D" />
<rect x="150" y="382" width="142" height="18" rx="9" fill="#58A6FF" />
<text x="1162" y="397" fill="#C9D1D9" font-family="Segoe UI, Helvetica, Arial, sans-serif" font-size="14">1</text>
<text x="0" y="442" fill="#C9D1D9" font-family="Segoe UI, Helvetica, Arial, sans-serif" font-size="16">Java</text>
<rect x="150" y="426" width="1000" height="18" rx="9" fill="#30363D" />
<rect x="150" y="426" width="142" height="18" rx="9" fill="#58A6FF" />
<text x="1162" y="441" fill="#C9D1D9" font-family="Segoe UI, Helvetica, Arial, sans-serif" font-size="14">1</text>
<text x="0" y="486" fill="#C9D1D9" font-family="Segoe UI, Helvetica, Arial, sans-serif" font-size="16">PLpgSQL</text>
<rect x="150" y="470" width="1000" height="18" rx="9" fill="#30363D" />
<rect x="150" y="470" width="142" height="18" rx="9" fill="#58A6FF" />
<text x="1162" y="485" fill="#C9D1D9" font-family="Segoe UI, Helvetica, Arial, sans-serif" font-size="14">1</text>
<text x="0" y="530" fill="#C9D1D9" font-family="Segoe UI, Helvetica, Arial, sans-serif" font-size="16">Shell</text>
<rect x="150" y="514" width="1000" height="18" rx="9" fill="#30363D" />
<rect x="150" y="514" width="142" height="18" rx="9" fill="#58A6FF" />
<text x="1162" y="529" fill="#C9D1D9" font-family="Segoe UI, Helvetica, Arial, sans-serif" font-size="14">1</text>
<text x="0" y="574" fill="#C9D1D9" font-family="Segoe UI, Helvetica, Arial, sans-serif" font-size="16">TypeScript</text>
<rect x="150" y="558" width="1000" height="18" rx="9" fill="#30363D" />
<rect x="150" y="558" width="142" height="18" rx="9" fill="#58A6FF" />
<text x="1162" y="573" fill="#C9D1D9" font-family="Segoe UI, Helvetica, Arial, sans-serif" font-size="14">1</text>
<text x="0" y="626" fill="#8B949E" font-family="Segoe UI, Helvetica, Arial, sans-serif" font-size="12">Updated: 2026-02-13 21:14:48.993753 SGT</text>
</svg>