<svg xmlns="http://www.w3.org/2000/svg" width="860" height="636" role="img" aria-label="Projects by detected languages chart">
<text x="34" y="54" fill="#C9D1D9" font-family="Segoe UI, Helvetica, Arial, sans-serif" font-size="28" font-weight="700">Projects by Detected Languages</text>
<text x="34" y="79" fill="#8B949E" font-family="Segoe UI, Helvetica, Arial, sans-serif" font-size="14">Each detected repo language counts once - Zerius7733</text>
<text x="34" y="94" fill="#8B949E" font-family="Segoe UI, Helvetica, Arial, sans-serif" font-size="14">Contributed Repositories • Zerius7733</text>
<text x="34" y="122" fill="#C9D1D9" font-family="Segoe UI, Helvetica, Arial, sans-serif" font-size="16">Python</text>
<rect x="240" y="106" width="560" height="18" rx="9" fill="#30363D" />
<rect x="240" y="106" width="560" height="18" rx="9" fill="#58A6FF" />
<text x="812" y="121" fill="#C9D1D9" font-family="Segoe UI, Helvetica, Arial, sans-serif" font-size="14">7</text>
<text x="34" y="166" fill="#C9D1D9" font-family="Segoe UI, Helvetica, Arial, sans-serif" font-size="16">HTML</text>
<rect x="240" y="150" width="560" height="18" rx="9" fill="#30363D" />
<rect x="240" y="150" width="320" height="18" rx="9" fill="#58A6FF" />
<text x="812" y="165" fill="#C9D1D9" font-family="Segoe UI, Helvetica, Arial, sans-serif" font-size="14">4</text>
<text x="34" y="210" fill="#C9D1D9" font-family="Segoe UI, Helvetica, Arial, sans-serif" font-size="16">Jupyter Notebook</text>
<rect x="240" y="194" width="560" height="18" rx="9" fill="#30363D" />
<rect x="240" y="194" width="240" height="18" rx="9" fill="#58A6FF" />
<text x="812" y="209" fill="#C9D1D9" font-family="Segoe UI, Helvetica, Arial, sans-serif" font-size="14">3</text>
<text x="34" y="254" fill="#C9D1D9" font-family="Segoe UI, Helvetica, Arial, sans-serif" font-size="16">JavaScript</text>
<rect x="240" y="238" width="560" height="18" rx="9" fill="#30363D" />
<rect x="240" y="238" width="160" height="18" rx="9" fill="#58A6FF" />
<text x="812" y="253" fill="#C9D1D9" font-family="Segoe UI, Helvetica, Arial, sans-serif" font-size="14">2</text>
<text x="34" y="298" fill="#C9D1D9" font-family="Segoe UI, Helvetica, Arial, sans-serif" font-size="16">C</text>
<rect x="240" y="282" width="560" height="18" rx="9" fill="#30363D" />
<rect x="240" y="282" width="80" height="18" rx="9" fill="#58A6FF" />
<text x="812" y="297" fill="#C9D1D9" font-family="Segoe UI, Helvetica, Arial, sans-serif" font-size="14">1</text>
<text x="34" y="342" fill="#C9D1D9" font-family="Segoe UI, Helvetica, Arial, sans-serif" font-size="16">CSS</text>
<rect x="240" y="326" width="560" height="18" rx="9" fill="#30363D" />
<rect x="240" y="326" width="80" height="18" rx="9" fill="#58A6FF" />
<text x="812" y="341" fill="#C9D1D9" font-family="Segoe UI, Helvetica, Arial, sans-serif" font-size="14">1</text>
<text x="34" y="386" fill="#C9D1D9" font-family="Segoe UI, Helvetica, Arial, sans-serif" font-size="16">Dockerfile</text>
<rect x="240" y="370" width="560" height="18" rx="9" fill="#30363D" />
<rect x="240" y="370" width="80" height="18" rx="9" fill="#58A6FF" />
<text x="812" y="385" fill="#C9D1D9" font-family="Segoe UI, Helvetica, Arial, sans-serif" font-size="14">1</text>
<text x="34" y="430" fill="#C9D1D9" font-family="Segoe UI, Helvetica, Arial, sans-serif" font-size="16">Java</text>
<rect x="240" y="414" width="560" height="18" rx="9" fill="#30363D" />
<rect x="240" y="414" width="80" height="18" rx="9" fill="#58A6FF" />
<text x="812" y="429" fill="#C9D1D9" font-family="Segoe UI, Helvetica, Arial, sans-serif" font-size="14">1</text>
<text x="34" y="474" fill="#C9D1D9" font-family="Segoe UI, Helvetica, Arial, sans-serif" font-size="16">PLpgSQL</text>
<rect x="240" y="458" width="560" height="18" rx="9" fill="#30363D" />
<rect x="240" y="458" width="80" height="18" rx="9" fill="#58A6FF" />
<text x="812" y="473" fill="#C9D1D9" font-family="Segoe UI, Helvetica, Arial, sans-serif" font-size="14">1</text>
<text x="34" y="518" fill="#C9D1D9" font-family="Segoe UI, Helvetica, Arial, sans-serif" font-size="16">Shell</text>
<rect x="240" y="502" width="560" height="18" rx="9" fill="#30363D" />
<rect x="240" y="502" width="80" height="18" rx="9" fill="#58A6FF" />
<text x="812" y="517" fill="#C9D1D9" font-family="Segoe UI, Helvetica, Arial, sans-serif" font-size="14">1</text>
<text x="34" y="562" fill="#C9D1D9" font-family="Segoe UI, Helvetica, Arial, sans-serif" font-size="16">TypeScript</text>
<rect x="240" y="546" width="560" height="18" rx="9" fill="#30363D" />
<rect x="240" y="546" width="80" height="18" rx="9" fill="#58A6FF" />
<text x="812" y="561" fill="#C9D1D9" font-family="Segoe UI, Helvetica, Arial, sans-serif" font-size="14">1</text>
<text x="34" y="614" fill="#8B949E" font-family="Segoe UI, Helvetica, Arial, sans-serif" font-size="12">Updated: 2026-02-13 19:45 SGT</text>
</svg>