<svg xmlns="http://www.w3.org/2000/svg" width="1200" height="410" role="img" aria-label="Lines of Code analysis for Zerius7733 for Last 30 Days">
<rect width="1200" height="410" rx="8" fill="#0D1117" />
<text x="28" y="35" fill="#F0F6FC" font-family="Segoe UI, -apple-system, BlinkMacSystemFont, sans-serif" font-size="27">Lines of Code (LOC) Analysis</text>
<text x="1170" y="35" text-anchor="end" fill="#8B949E" font-family="Segoe UI, -apple-system, BlinkMacSystemFont, sans-serif" font-size="15">Last 30 Days</text>
<rect x="20" y="55" width="390" height="280" rx="6" fill="#161B22" stroke="#30363D" stroke-width="1" />
<rect x="420" y="55" width="390" height="280" rx="6" fill="#161B22" stroke="#30363D" stroke-width="1" />
<rect x="820" y="55" width="175" height="135" rx="6" fill="#161B22" stroke="#30363D" stroke-width="1" />
<rect x="1005" y="55" width="175" height="135" rx="6" fill="#161B22" stroke="#30363D" stroke-width="1" />
<rect x="820" y="200" width="175" height="135" rx="6" fill="#161B22" stroke="#30363D" stroke-width="1" />
<rect x="1005" y="200" width="175" height="135" rx="6" fill="#161B22" stroke="#30363D" stroke-width="1" />
<text x="36" y="84" fill="#F0F6FC" font-family="Segoe UI, -apple-system, BlinkMacSystemFont, sans-serif" font-size="18" font-weight="700">Most Used Languages</text>
<text x="36" y="105" fill="#8B949E" font-family="Segoe UI, -apple-system, BlinkMacSystemFont, sans-serif" font-size="14">By LOC Changed</text>
<text x="436" y="84" fill="#F0F6FC" font-family="Segoe UI, -apple-system, BlinkMacSystemFont, sans-serif" font-size="18" font-weight="700">Most Active Repositories</text>
<text x="436" y="105" fill="#8B949E" font-family="Segoe UI, -apple-system, BlinkMacSystemFont, sans-serif" font-size="14">By LOC Changed</text>
<path d="M 215.00 106.00 A 84 84 0 0 1 265.86 256.85 L 242.25 225.81 A 45 45 0 0 0 215.00 145.00 Z" fill="#2F81F7" stroke="#161B22" stroke-width="2" />
<path d="M 265.86 256.85 A 84 84 0 0 1 132.30 204.73 L 170.70 197.89 A 45 45 0 0 0 242.25 225.81 Z" fill="#F78166" stroke="#161B22" stroke-width="2" />
<path d="M 132.30 204.73 A 84 84 0 0 1 168.08 120.33 L 189.86 152.67 A 45 45 0 0 0 170.70 197.89 Z" fill="#2EA043" stroke="#161B22" stroke-width="2" />
<path d="M 168.08 120.33 A 84 84 0 0 1 204.89 106.61 L 209.58 145.33 A 45 45 0 0 0 189.86 152.67 Z" fill="#F85149" stroke="#161B22" stroke-width="2" />
<path d="M 204.89 106.61 A 84 84 0 0 1 215.00 106.00 L 215.00 145.00 A 45 45 0 0 0 209.58 145.33 Z" fill="#A371F7" stroke="#161B22" stroke-width="2" />
<circle cx="215" cy="190" r="45" fill="#161B22" />
<path d="M 615.00 106.00 A 84 84 0 1 1 607.02 106.38 L 610.72 145.20 A 45 45 0 1 0 615.00 145.00 Z" fill="#2F81F7" stroke="#161B22" stroke-width="2" />
<path d="M 607.02 106.38 A 84 84 0 0 1 614.69 106.00 L 614.83 145.00 A 45 45 0 0 0 610.72 145.20 Z" fill="#F78166" stroke="#161B22" stroke-width="2" />
<path d="M 614.69 106.00 A 84 84 0 0 1 615.00 106.00 L 615.00 145.00 A 45 45 0 0 0 614.83 145.00 Z" fill="#2EA043" stroke="#161B22" stroke-width="2" />
<circle cx="615" cy="190" r="45" fill="#161B22" />
<rect x="36.0" y="290.0" width="10" height="10" rx="2" fill="#2F81F7"><title>JavaScript: 3,304 lines changed</title></rect>
<text x="52.0" y="300.0" fill="#C9D1D9" font-family="Segoe UI, -apple-system, BlinkMacSystemFont, sans-serif" font-size="11">JavaScript - 40%</text>
<rect x="215.0" y="290.0" width="10" height="10" rx="2" fill="#F78166"><title>Other: 2,712 lines changed</title></rect>
<text x="231.0" y="300.0" fill="#C9D1D9" font-family="Segoe UI, -apple-system, BlinkMacSystemFont, sans-serif" font-size="11">Other - 33%</text>
<rect x="36.0" y="305.0" width="10" height="10" rx="2" fill="#2EA043"><title>C: 1,531 lines changed</title></rect>
<text x="52.0" y="315.0" fill="#C9D1D9" font-family="Segoe UI, -apple-system, BlinkMacSystemFont, sans-serif" font-size="11">C - 18%</text>
<rect x="215.0" y="305.0" width="10" height="10" rx="2" fill="#F85149"><title>Markdown: 626 lines changed</title></rect>
<text x="231.0" y="315.0" fill="#C9D1D9" font-family="Segoe UI, -apple-system, BlinkMacSystemFont, sans-serif" font-size="11">Markdown - 8%</text>
<rect x="36.0" y="320.0" width="10" height="10" rx="2" fill="#A371F7"><title>CSS: 160 lines changed</title></rect>
<text x="52.0" y="330.0" fill="#C9D1D9" font-family="Segoe UI, -apple-system, BlinkMacSystemFont, sans-serif" font-size="11">CSS - 2%</text>
<rect x="436.0" y="290.0" width="10" height="10" rx="2" fill="#2F81F7"><title>Private repositories: 8,258 lines changed</title></rect>
<text x="452.0" y="300.0" fill="#C9D1D9" font-family="Segoe UI, -apple-system, BlinkMacSystemFont, sans-serif" font-size="11">Private repos - 98%</text>
<rect x="615.0" y="290.0" width="10" height="10" rx="2" fill="#F78166"><title>Zerius7733/Email-Generator-Extension: 122 lines changed</title></rect>
<text x="631.0" y="300.0" fill="#C9D1D9" font-family="Segoe UI, -apple-system, BlinkMacSystemFont, sans-serif" font-size="11">Email-Generat... - 1%</text>
<rect x="436.0" y="305.0" width="10" height="10" rx="2" fill="#2EA043"><title>Zerius7733/Zerius7733: 5 lines changed</title></rect>
<text x="452.0" y="315.0" fill="#C9D1D9" font-family="Segoe UI, -apple-system, BlinkMacSystemFont, sans-serif" font-size="11">Zerius7733 - 0%</text>
<text x="907" y="111" text-anchor="middle" fill="#2EA043" font-family="Segoe UI, -apple-system, BlinkMacSystemFont, sans-serif" font-size="20" font-weight="700">+7,586</text>
<text x="907" y="133" text-anchor="middle" fill="#2EA043" font-family="Segoe UI, -apple-system, BlinkMacSystemFont, sans-serif" font-size="14">LOC Additions</text>
<text x="1092" y="111" text-anchor="middle" fill="#F85149" font-family="Segoe UI, -apple-system, BlinkMacSystemFont, sans-serif" font-size="20" font-weight="700">-799</text>
<text x="1092" y="133" text-anchor="middle" fill="#F85149" font-family="Segoe UI, -apple-system, BlinkMacSystemFont, sans-serif" font-size="14">LOC Deletions</text>
<text x="907" y="257" text-anchor="middle" fill="#2EA043" font-family="Segoe UI, -apple-system, BlinkMacSystemFont, sans-serif" font-size="20" font-weight="700">14 <tspan fill="#8B949E">/</tspan> <tspan fill="#F85149">2</tspan></text>
<text x="907" y="280" text-anchor="middle" fill="#8B949E" font-family="Segoe UI, -apple-system, BlinkMacSystemFont, sans-serif" font-size="14">Typical Commit</text>
<text x="1092" y="257" text-anchor="middle" fill="#F0F6FC" font-family="Segoe UI, -apple-system, BlinkMacSystemFont, sans-serif" font-size="20" font-weight="700">280</text>
<text x="1092" y="280" text-anchor="middle" fill="#8B949E" font-family="Segoe UI, -apple-system, BlinkMacSystemFont, sans-serif" font-size="14">Lines Changed / Day</text>
<text x="28" y="373" fill="#8B949E" font-family="Segoe UI, -apple-system, BlinkMacSystemFont, sans-serif" font-size="12">Based on authenticated GitHub commit file statistics across accessible repositories</text>
<text x="1170" y="373" text-anchor="end" fill="#8B949E" font-family="Segoe UI, -apple-system, BlinkMacSystemFont, sans-serif" font-size="12">43 commits | 13 active days</text>
</svg>