<svg xmlns="http://www.w3.org/2000/svg" width="1200" height="410" role="img" aria-label="Lines of Code analysis for Zerius7733 for Last 90 Days">
<rect width="1200" height="410" rx="8" fill="#0D1117" />
<text x="28" y="35" fill="#F0F6FC" font-family="Segoe UI, -apple-system, BlinkMacSystemFont, sans-serif" font-size="27">Lines of Code (LOC) Analysis</text>
<text x="1170" y="35" text-anchor="end" fill="#8B949E" font-family="Segoe UI, -apple-system, BlinkMacSystemFont, sans-serif" font-size="15">Last 90 Days</text>
<rect x="20" y="55" width="390" height="280" rx="6" fill="#161B22" stroke="#30363D" stroke-width="1" />
<rect x="420" y="55" width="390" height="280" rx="6" fill="#161B22" stroke="#30363D" stroke-width="1" />
<rect x="820" y="55" width="175" height="135" rx="6" fill="#161B22" stroke="#30363D" stroke-width="1" />
<rect x="1005" y="55" width="175" height="135" rx="6" fill="#161B22" stroke="#30363D" stroke-width="1" />
<rect x="820" y="200" width="175" height="135" rx="6" fill="#161B22" stroke="#30363D" stroke-width="1" />
<rect x="1005" y="200" width="175" height="135" rx="6" fill="#161B22" stroke="#30363D" stroke-width="1" />
<text x="36" y="84" fill="#F0F6FC" font-family="Segoe UI, -apple-system, BlinkMacSystemFont, sans-serif" font-size="18" font-weight="700">Most Used Languages</text>
<text x="36" y="105" fill="#8B949E" font-family="Segoe UI, -apple-system, BlinkMacSystemFont, sans-serif" font-size="14">By LOC Changed</text>
<text x="436" y="84" fill="#F0F6FC" font-family="Segoe UI, -apple-system, BlinkMacSystemFont, sans-serif" font-size="18" font-weight="700">Most Active Repositories</text>
<text x="436" y="105" fill="#8B949E" font-family="Segoe UI, -apple-system, BlinkMacSystemFont, sans-serif" font-size="14">By LOC Changed</text>
<path d="M 215.00 106.00 A 84 84 0 0 1 287.15 233.02 L 253.65 213.05 A 45 45 0 0 0 215.00 145.00 Z" fill="#2F81F7" stroke="#161B22" stroke-width="2" />
<path d="M 287.15 233.02 A 84 84 0 0 1 191.10 270.53 L 202.19 233.14 A 45 45 0 0 0 253.65 213.05 Z" fill="#F78166" stroke="#161B22" stroke-width="2" />
<path d="M 191.10 270.53 A 84 84 0 0 1 131.03 192.32 L 170.02 191.24 A 45 45 0 0 0 202.19 233.14 Z" fill="#2EA043" stroke="#161B22" stroke-width="2" />
<path d="M 131.03 192.32 A 84 84 0 0 1 174.94 116.17 L 193.54 150.45 A 45 45 0 0 0 170.02 191.24 Z" fill="#F85149" stroke="#161B22" stroke-width="2" />
<path d="M 174.94 116.17 A 84 84 0 0 1 215.00 106.00 L 215.00 145.00 A 45 45 0 0 0 193.54 150.45 Z" fill="#A371F7" stroke="#161B22" stroke-width="2" />
<circle cx="215" cy="190" r="45" fill="#161B22" />
<path d="M 615.00 106.00 A 84 84 0 1 1 554.94 131.28 L 582.82 158.54 A 45 45 0 1 0 615.00 145.00 Z" fill="#2F81F7" stroke="#161B22" stroke-width="2" />
<path d="M 554.94 131.28 A 84 84 0 0 1 581.33 113.04 L 596.96 148.77 A 45 45 0 0 0 582.82 158.54 Z" fill="#F78166" stroke="#161B22" stroke-width="2" />
<path d="M 581.33 113.04 A 84 84 0 0 1 595.73 108.24 L 604.68 146.20 A 45 45 0 0 0 596.96 148.77 Z" fill="#2EA043" stroke="#161B22" stroke-width="2" />
<path d="M 595.73 108.24 A 84 84 0 0 1 610.72 106.11 L 612.71 145.06 A 45 45 0 0 0 604.68 146.20 Z" fill="#F85149" stroke="#161B22" stroke-width="2" />
<path d="M 610.72 106.11 A 84 84 0 0 1 615.00 106.00 L 615.00 145.00 A 45 45 0 0 0 612.71 145.06 Z" fill="#A371F7" stroke="#161B22" stroke-width="2" />
<circle cx="615" cy="190" r="45" fill="#161B22" />
<rect x="36.0" y="290.0" width="10" height="10" rx="2" fill="#2F81F7"><title>TypeScript: 166,786 lines changed</title></rect>
<text x="52.0" y="300.0" fill="#C9D1D9" font-family="Segoe UI, -apple-system, BlinkMacSystemFont, sans-serif" font-size="11">TypeScript - 34%</text>
<rect x="215.0" y="290.0" width="10" height="10" rx="2" fill="#F78166"><title>C: 104,550 lines changed</title></rect>
<text x="231.0" y="300.0" fill="#C9D1D9" font-family="Segoe UI, -apple-system, BlinkMacSystemFont, sans-serif" font-size="11">C - 21%</text>
<rect x="36.0" y="305.0" width="10" height="10" rx="2" fill="#2EA043"><title>C/C++: 99,241 lines changed</title></rect>
<text x="52.0" y="315.0" fill="#C9D1D9" font-family="Segoe UI, -apple-system, BlinkMacSystemFont, sans-serif" font-size="11">C++ - 20%</text>
<rect x="215.0" y="305.0" width="10" height="10" rx="2" fill="#F85149"><title>Python: 87,120 lines changed</title></rect>
<text x="231.0" y="315.0" fill="#C9D1D9" font-family="Segoe UI, -apple-system, BlinkMacSystemFont, sans-serif" font-size="11">Python - 18%</text>
<rect x="36.0" y="320.0" width="10" height="10" rx="2" fill="#A371F7"><title>Markdown: 39,323 lines changed</title></rect>
<text x="52.0" y="330.0" fill="#C9D1D9" font-family="Segoe UI, -apple-system, BlinkMacSystemFont, sans-serif" font-size="11">Markdown - 8%</text>
<rect x="436.0" y="290.0" width="10" height="10" rx="2" fill="#2F81F7"><title>Private repositories: 507,483 lines changed</title></rect>
<text x="452.0" y="300.0" fill="#C9D1D9" font-family="Segoe UI, -apple-system, BlinkMacSystemFont, sans-serif" font-size="11">Private repos - 87%</text>
<rect x="615.0" y="290.0" width="10" height="10" rx="2" fill="#F78166"><title>Zerius7733/tictac-techjam: 35,545 lines changed</title></rect>
<text x="631.0" y="300.0" fill="#C9D1D9" font-family="Segoe UI, -apple-system, BlinkMacSystemFont, sans-serif" font-size="11">tictac-techjam - 6%</text>
<rect x="436.0" y="305.0" width="10" height="10" rx="2" fill="#2EA043"><title>Zerius7733/Zerius7733: 16,730 lines changed</title></rect>
<text x="452.0" y="315.0" fill="#C9D1D9" font-family="Segoe UI, -apple-system, BlinkMacSystemFont, sans-serif" font-size="11">Zerius7733 - 3%</text>
<rect x="615.0" y="305.0" width="10" height="10" rx="2" fill="#F85149"><title>Zerius7733/AWS-CockroachDB-Hackathon: 16,702 lines changed</title></rect>
<text x="631.0" y="315.0" fill="#C9D1D9" font-family="Segoe UI, -apple-system, BlinkMacSystemFont, sans-serif" font-size="11">AWS-Cockroach... - 3%</text>
<rect x="436.0" y="320.0" width="10" height="10" rx="2" fill="#A371F7"><title>jeanetteong/dietbet: 4,711 lines changed</title></rect>
<text x="452.0" y="330.0" fill="#C9D1D9" font-family="Segoe UI, -apple-system, BlinkMacSystemFont, sans-serif" font-size="11">dietbet - 1%</text>
<text x="907" y="111" text-anchor="middle" fill="#2EA043" font-family="Segoe UI, -apple-system, BlinkMacSystemFont, sans-serif" font-size="20" font-weight="700">+490,916</text>
<text x="907" y="133" text-anchor="middle" fill="#2EA043" font-family="Segoe UI, -apple-system, BlinkMacSystemFont, sans-serif" font-size="14">LOC Additions</text>
<text x="1092" y="111" text-anchor="middle" fill="#F85149" font-family="Segoe UI, -apple-system, BlinkMacSystemFont, sans-serif" font-size="20" font-weight="700">-91,304</text>
<text x="1092" y="133" text-anchor="middle" fill="#F85149" font-family="Segoe UI, -apple-system, BlinkMacSystemFont, sans-serif" font-size="14">LOC Deletions</text>
<text x="907" y="257" text-anchor="middle" fill="#2EA043" font-family="Segoe UI, -apple-system, BlinkMacSystemFont, sans-serif" font-size="20" font-weight="700">88 <tspan fill="#8B949E">/</tspan> <tspan fill="#F85149">11</tspan></text>
<text x="907" y="280" text-anchor="middle" fill="#8B949E" font-family="Segoe UI, -apple-system, BlinkMacSystemFont, sans-serif" font-size="14">Typical Commit</text>
<text x="1092" y="257" text-anchor="middle" fill="#F0F6FC" font-family="Segoe UI, -apple-system, BlinkMacSystemFont, sans-serif" font-size="20" font-weight="700">6469</text>
<text x="1092" y="280" text-anchor="middle" fill="#8B949E" font-family="Segoe UI, -apple-system, BlinkMacSystemFont, sans-serif" font-size="14">Lines Changed / Day</text>
<text x="28" y="373" fill="#8B949E" font-family="Segoe UI, -apple-system, BlinkMacSystemFont, sans-serif" font-size="12">Based on authenticated GitHub commit file statistics across accessible repositories</text>
<text x="1170" y="373" text-anchor="end" fill="#8B949E" font-family="Segoe UI, -apple-system, BlinkMacSystemFont, sans-serif" font-size="12">561 commits | 55 active days</text>
</svg>