<svg xmlns="http://www.w3.org/2000/svg" width="1200" height="410" role="img" aria-label="Lines of Code analysis for Zerius7733 for Last 7 Days">
<rect width="1200" height="410" rx="8" fill="#0D1117" />
<text x="28" y="35" fill="#F0F6FC" font-family="Segoe UI, -apple-system, BlinkMacSystemFont, sans-serif" font-size="27">Lines of Code (LOC) Analysis</text>
<text x="1170" y="35" text-anchor="end" fill="#8B949E" font-family="Segoe UI, -apple-system, BlinkMacSystemFont, sans-serif" font-size="15">Last 7 Days</text>
<rect x="20" y="55" width="390" height="280" rx="6" fill="#161B22" stroke="#30363D" stroke-width="1" />
<rect x="420" y="55" width="390" height="280" rx="6" fill="#161B22" stroke="#30363D" stroke-width="1" />
<rect x="820" y="55" width="175" height="135" rx="6" fill="#161B22" stroke="#30363D" stroke-width="1" />
<rect x="1005" y="55" width="175" height="135" rx="6" fill="#161B22" stroke="#30363D" stroke-width="1" />
<rect x="820" y="200" width="175" height="135" rx="6" fill="#161B22" stroke="#30363D" stroke-width="1" />
<rect x="1005" y="200" width="175" height="135" rx="6" fill="#161B22" stroke="#30363D" stroke-width="1" />
<text x="36" y="84" fill="#F0F6FC" font-family="Segoe UI, -apple-system, BlinkMacSystemFont, sans-serif" font-size="18" font-weight="700">Most Used Languages</text>
<text x="36" y="105" fill="#8B949E" font-family="Segoe UI, -apple-system, BlinkMacSystemFont, sans-serif" font-size="14">By LOC Changed</text>
<text x="436" y="84" fill="#F0F6FC" font-family="Segoe UI, -apple-system, BlinkMacSystemFont, sans-serif" font-size="18" font-weight="700">Most Active Repositories</text>
<text x="436" y="105" fill="#8B949E" font-family="Segoe UI, -apple-system, BlinkMacSystemFont, sans-serif" font-size="14">By LOC Changed</text>
<path d="M 215.00 106.00 A 84 84 0 1 1 186.16 111.11 L 199.55 147.74 A 45 45 0 1 0 215.00 145.00 Z" fill="#2F81F7" stroke="#161B22" stroke-width="2" />
<path d="M 186.16 111.11 A 84 84 0 0 1 209.61 106.17 L 212.11 145.09 A 45 45 0 0 0 199.55 147.74 Z" fill="#F78166" stroke="#161B22" stroke-width="2" />
<path d="M 209.61 106.17 A 84 84 0 0 1 215.00 106.00 L 215.00 145.00 A 45 45 0 0 0 212.11 145.09 Z" fill="#2EA043" stroke="#161B22" stroke-width="2" />
<circle cx="215" cy="190" r="45" fill="#161B22" />
<path d="M 615.00 106.00 A 84 84 0 1 1 613.69 106.01 L 614.30 145.01 A 45 45 0 1 0 615.00 145.00 Z" fill="#2F81F7" stroke="#161B22" stroke-width="2" />
<path d="M 613.69 106.01 A 84 84 0 0 1 615.00 106.00 L 615.00 145.00 A 45 45 0 0 0 614.30 145.01 Z" fill="#F78166" stroke="#161B22" stroke-width="2" />
<circle cx="615" cy="190" r="45" fill="#161B22" />
<rect x="36.0" y="290.0" width="10" height="10" rx="2" fill="#2F81F7"><title>JavaScript: 3,047 lines changed</title></rect>
<text x="52.0" y="300.0" fill="#C9D1D9" font-family="Segoe UI, -apple-system, BlinkMacSystemFont, sans-serif" font-size="11">JavaScript - 94%</text>
<rect x="215.0" y="290.0" width="10" height="10" rx="2" fill="#F78166"><title>CSS: 147 lines changed</title></rect>
<text x="231.0" y="300.0" fill="#C9D1D9" font-family="Segoe UI, -apple-system, BlinkMacSystemFont, sans-serif" font-size="11">CSS - 5%</text>
<rect x="36.0" y="305.0" width="10" height="10" rx="2" fill="#2EA043"><title>Markdown: 33 lines changed</title></rect>
<text x="52.0" y="315.0" fill="#C9D1D9" font-family="Segoe UI, -apple-system, BlinkMacSystemFont, sans-serif" font-size="11">Markdown - 1%</text>
<rect x="436.0" y="290.0" width="10" height="10" rx="2" fill="#2F81F7"><title>Private repositories: 3,219 lines changed</title></rect>
<text x="452.0" y="300.0" fill="#C9D1D9" font-family="Segoe UI, -apple-system, BlinkMacSystemFont, sans-serif" font-size="11">Private repos - 100%</text>
<rect x="615.0" y="290.0" width="10" height="10" rx="2" fill="#F78166"><title>Zerius7733/Email-Generator-Extension: 8 lines changed</title></rect>
<text x="631.0" y="300.0" fill="#C9D1D9" font-family="Segoe UI, -apple-system, BlinkMacSystemFont, sans-serif" font-size="11">Email-Generat... - 0%</text>
<text x="907" y="111" text-anchor="middle" fill="#2EA043" font-family="Segoe UI, -apple-system, BlinkMacSystemFont, sans-serif" font-size="20" font-weight="700">+2,988</text>
<text x="907" y="133" text-anchor="middle" fill="#2EA043" font-family="Segoe UI, -apple-system, BlinkMacSystemFont, sans-serif" font-size="14">LOC Additions</text>
<text x="1092" y="111" text-anchor="middle" fill="#F85149" font-family="Segoe UI, -apple-system, BlinkMacSystemFont, sans-serif" font-size="20" font-weight="700">-239</text>
<text x="1092" y="133" text-anchor="middle" fill="#F85149" font-family="Segoe UI, -apple-system, BlinkMacSystemFont, sans-serif" font-size="14">LOC Deletions</text>
<text x="907" y="257" text-anchor="middle" fill="#2EA043" font-family="Segoe UI, -apple-system, BlinkMacSystemFont, sans-serif" font-size="20" font-weight="700">9 <tspan fill="#8B949E">/</tspan> <tspan fill="#F85149">4</tspan></text>
<text x="907" y="280" text-anchor="middle" fill="#8B949E" font-family="Segoe UI, -apple-system, BlinkMacSystemFont, sans-serif" font-size="14">Typical Commit</text>
<text x="1092" y="257" text-anchor="middle" fill="#F0F6FC" font-family="Segoe UI, -apple-system, BlinkMacSystemFont, sans-serif" font-size="20" font-weight="700">461</text>
<text x="1092" y="280" text-anchor="middle" fill="#8B949E" font-family="Segoe UI, -apple-system, BlinkMacSystemFont, sans-serif" font-size="14">Lines Changed / Day</text>
<text x="28" y="373" fill="#8B949E" font-family="Segoe UI, -apple-system, BlinkMacSystemFont, sans-serif" font-size="12">Based on authenticated GitHub commit file statistics across accessible repositories</text>
<text x="1170" y="373" text-anchor="end" fill="#8B949E" font-family="Segoe UI, -apple-system, BlinkMacSystemFont, sans-serif" font-size="12">24 commits | 3 active days</text>
</svg>